<svg width="324" height="362" viewBox="0 0 324 362" fill="none" xmlns="http://www.w3.org/2000/svg">
<path d="M22.6134 355.228L18.0144 311.228C17.5826 307.096 20.8226 303.5 24.9765 303.5H301.301C305.503 303.5 308.758 307.176 308.25 311.347L302.884 355.347C302.456 358.86 299.474 361.5 295.936 361.5H29.5755C25.9912 361.5 22.986 358.793 22.6134 355.228Z" fill="white" stroke="black"/>
<path d="M32.538 284.835L5.45814 280.904C5.10101 280.852 4.76784 280.694 4.50219 280.449C3.2019 279.254 4.23148 277.097 5.97874 277.356L27.1919 280.502C28.6178 280.713 30.0741 280.553 31.4202 280.038L35.3692 278.525C38.8471 277.193 42.583 276.67 46.2929 276.998L65.1117 278.662L98.0346 280.824H111.204L140.771 282.482C146.738 282.816 152.722 282.272 158.531 280.867L160.572 280.373C165.269 279.236 170.085 278.662 174.918 278.662H197.744L233.53 280.412C239.12 280.686 244.72 280.189 250.175 278.935L251.854 278.549C257.763 277.191 263.842 276.721 269.89 277.155L290.868 278.662H307.38C308.855 278.662 310.272 279.239 311.328 280.271C314.163 283.04 313.34 287.791 309.74 289.446L306.064 291.136C304.155 292.014 301.987 292.147 299.985 291.51L290.868 288.608L280.962 286.9C277.539 286.31 274.072 286.014 270.598 286.014H252.302L237.639 287.772C233.006 288.328 228.325 288.35 223.686 287.838L207.15 286.014H188.337L144.72 288.373C141.82 288.529 138.912 288.479 136.019 288.222L117.043 286.533C113.17 286.188 109.267 286.395 105.451 287.147C100.548 288.113 95.5094 288.177 90.583 287.336L73.9617 284.498C68.0933 283.496 62.1099 283.358 56.2017 284.089L48.7945 285.006C43.3923 285.675 37.9249 285.617 32.538 284.835Z" fill="#22C55E" stroke="black"/>
<rect x="8.7067" y="199" width="314" height="34" rx="15.5" fill="white" stroke="black"/>
<path d="M288.57 135.289L311.65 140.725C312.421 140.907 313.093 141.381 313.523 142.047C315.027 144.374 312.921 147.344 310.227 146.695L292.839 142.505C290.002 141.821 287.009 142.383 284.613 144.048L282.404 145.583C279.067 147.903 274.98 148.885 270.953 148.333L252.677 145.83L219.667 142.614L206.489 142.842L178.6 140.592C171.534 140.022 164.437 141.229 157.957 144.104C152.758 146.409 147.148 147.648 141.461 147.746L119.958 148.117L85.3473 145.757C78.9737 145.323 72.5871 146.39 66.7015 148.874C60.3116 151.571 53.3399 152.595 46.4444 151.85L26.7727 149.723L13.8984 149.944C10.2125 150.008 6.76924 148.112 4.85212 144.963C2.17661 140.569 3.12316 134.878 7.07707 131.586L8.01613 130.804C11.7058 127.732 16.8888 127.202 21.1236 129.464L24.7655 131.409C25.9004 132.016 27.0973 132.498 28.3354 132.848L32.9571 134.155C38.6955 135.777 44.6409 136.549 50.6034 136.446L58.8174 136.305C63.0231 136.232 67.2101 135.725 71.3115 134.791L74.7422 134.01C82.6441 132.21 90.8253 132.003 98.8081 133.401L104.581 134.412C108.401 135.08 112.276 135.384 116.153 135.317L129.149 135.093L169.501 130.574C174.531 130.011 179.612 130.076 184.626 130.768L200.319 132.933C204.268 133.478 208.291 133.05 212.038 131.687C216.846 129.937 222.082 129.738 227.01 131.117L239.948 134.738C248.212 137.051 256.928 137.236 265.283 135.277C272.942 133.481 280.913 133.485 288.57 135.289Z" fill="#22C55E" stroke="black"/>
<path d="M27.8345 66.8621C21.1573 80.7761 14.4544 98.8842 18.3655 109.5C25.3655 128.5 295.366 119.5 306.366 109.5C312.79 103.66 306.935 83.4954 300.953 67.7292C295.82 54.1999 286.475 42.828 275.137 33.8361C267.337 27.65 258.619 22.7201 249.298 19.2246L232.147 12.7931C210.469 4.66398 187.507 0.5 164.355 0.5H163.164C138.217 0.5 113.521 5.48701 90.5293 15.1679L82.8799 18.3887C73.2433 22.4462 64.1654 27.7201 55.8674 34.0819C44.2924 42.9561 34.1448 53.7126 27.8345 66.8621Z" fill="white" stroke="black"/>
</svg>
